<svg width="512" height="512" viewBox="0 0 512 512" xmlns="http://www.w3.org/2000/svg">
  <rect width="512" height="512" fill="white"/>

  <defs>
    <clipPath id="wc">
      <path d="M0,0 L512,0 L512,328 Q472,304 432,320 Q376,344 320,318 Q264,292 208,318 Q160,338 112,322 Q72,308 0,322 Z"/>
    </clipPath>
  </defs>

  <circle cx="256" cy="332" r="188" stroke="#1a1a18" fill="none" stroke-width="38" clip-path="url(#wc)"/>
  <circle cx="256" cy="332" r="148" stroke="#1a1a18" fill="none" stroke-width="14" clip-path="url(#wc)"/>

  <g stroke="#1a1a18" stroke-width="28" stroke-linecap="round" clip-path="url(#wc)">
    <line x1="290" y1="332" x2="404" y2="332"/>
    <line x1="278" y1="305" x2="348" y2="208"/>
    <line x1="256" y1="297" x2="226" y2="190"/>
    <line x1="236" y1="310" x2="112" y2="242"/>
    <line x1="230" y1="336" x2="104" y2="352"/>
    <line x1="240" y1="357" x2="124" y2="438"/>
    <line x1="260" y1="366" x2="238" y2="480"/>
  </g>

  <g fill="#1a1a18" clip-path="url(#wc)">
    <circle cx="444" cy="332" r="22"/>
    <circle cx="376" cy="172" r="22"/>
    <circle cx="226" cy="132" r="22"/>
    <circle cx="80"  cy="242" r="22"/>
    <circle cx="68"  cy="332" r="22"/>
  </g>

  <g clip-path="url(#wc)">
    <circle cx="256" cy="332" r="52" fill="#1a1a18"/>
    <circle cx="256" cy="332" r="32" fill="#ffffff"/>
    <circle cx="256" cy="332" r="16" fill="#1a1a18"/>
  </g>

  <path d="M80,320 Q130,338 180,320 Q256,292 332,320 Q382,338 432,320"
        fill="none" stroke="#1a1a18" stroke-width="14" stroke-linecap="round" stroke-linejoin="round"/>
  <path d="M100,360 Q146,376 192,360 Q256,336 320,360 Q366,376 408,360"
        fill="none" stroke="#1a1a18" stroke-width="10" stroke-linecap="round" stroke-linejoin="round" opacity="0.65"/>
  <path d="M122,396 Q162,410 204,396 Q258,376 314,396 Q352,410 390,396"
        fill="none" stroke="#1a1a18" stroke-width="7" stroke-linecap="round" stroke-linejoin="round" opacity="0.4"/>
</svg>
